<?xml version="1.0" standalone="no"?>
<!DOCTYPE svg PUBLIC "-//W3C//DTD SVG 20010904//EN"
 "http://www.w3.org/TR/2001/REC-SVG-20010904/DTD/svg10.dtd">
<svg version="1.0" xmlns="http://www.w3.org/2000/svg"
 width="1667.000000pt" height="1667.000000pt" viewBox="0 0 1667.000000 1667.000000"
 preserveAspectRatio="xMidYMid meet">
<metadata>
Created by potrace 1.11, written by Peter Selinger 2001-2013
</metadata>
<g transform="translate(0.000000,1667.000000) scale(0.100000,-0.100000)"
fill="#000000" stroke="none">
<path d="M6299 16666 c-2 -2 -57 -7 -121 -10 -65 -4 -128 -9 -140 -11 -13 -2
-54 -6 -93 -9 -73 -7 -84 -8 -218 -26 -92 -13 -140 -20 -170 -26 -12 -2 -37
-6 -57 -9 -20 -3 -47 -8 -60 -10 -14 -3 -36 -7 -50 -10 -14 -3 -36 -7 -50 -10
-14 -3 -38 -8 -55 -11 -45 -8 -289 -65 -295 -69 -4 -2 -18 -6 -32 -9 -59 -10
-235 -62 -413 -121 -626 -206 -1228 -512 -1764 -896 -127 -91 -326 -242 -341
-259 -3 -3 -32 -28 -65 -55 -33 -27 -98 -84 -145 -125 -47 -41 -90 -79 -96
-85 -115 -101 -493 -496 -567 -593 -12 -15 -24 -29 -27 -32 -8 -7 -149 -185
-198 -250 -23 -30 -46 -60 -50 -65 -5 -6 -49 -69 -99 -140 -369 -527 -658
-1104 -859 -1710 -55 -167 -123 -401 -138 -475 -3 -14 -10 -45 -17 -70 -6 -25
-13 -56 -15 -70 -3 -14 -9 -38 -14 -55 -8 -27 -30 -141 -45 -235 -3 -19 -8
-42 -10 -50 -2 -8 -7 -33 -10 -55 -3 -23 -7 -51 -10 -64 -2 -13 -7 -49 -10
-80 -4 -31 -8 -63 -10 -71 -2 -8 -7 -42 -10 -75 -4 -33 -8 -71 -10 -85 -2 -14
-6 -61 -10 -105 -3 -44 -9 -105 -13 -135 -3 -30 -7 -2404 -9 -5276 l-3 -5221
5197 2 c2859 2 5227 5 5263 8 36 4 97 9 135 12 39 3 84 8 100 10 17 2 57 7 90
10 97 10 138 15 165 20 14 2 45 7 70 10 25 3 71 10 103 16 32 6 70 12 85 14
28 4 39 6 162 31 347 70 800 205 1100 327 14 6 27 11 30 12 9 3 62 25 150 62
100 42 473 224 577 282 154 85 483 286 526 321 7 6 65 47 129 92 300 213 570
441 837 709 146 146 187 189 350 374 203 229 476 610 672 935 90 151 287 529
344 660 15 36 37 85 48 110 158 355 346 963 412 1335 38 219 44 253 50 295 3
25 8 52 10 60 2 8 6 42 10 75 3 33 7 71 10 85 2 14 7 54 10 90 3 36 7 92 10
125 3 33 8 89 11 125 4 36 8 2404 9 5263 l2 5197 -5182 0 c-2850 0 -5184 -2
-5186 -4z"/>
</g>
</svg>
